Coordinates
version=1
nRows=21
nColumns=28
inDegrees=yes

Units are S.I. units (second, meters, Newtons, ...)
Angles are in degrees.

endheader
time	pelvis_tilt	pelvis_list	pelvis_rotation	pelvis_tx	pelvis_ty	pelvis_tz	hip_flexion_r	hip_adduction_r	hip_rotation_r	knee_angle_r	ankle_angle_r	subtalar_angle_r	mtp_angle_r	hip_flexion_l	hip_adduction_l	hip_rotation_l	knee_angle_l	socket_flexion	socket_adduction	socket_rotation	socket_tx	socket_ty	socket_tz	foot_flex	lumbar_extension	lumbar_bending	lumbar_rotation
      0.82083333	     -0.00410646	     -7.03933706	      7.29826564	      0.35357465	      0.98399317	      0.22967653	      7.21192188	     14.36100732	      3.00653905	    -18.92509140	      1.39290818	    -24.21673486	      2.12148386	     23.40700581	    -16.91906086	      2.58689655	    -68.92697595	      0.00000000	      0.00000000	      0.00000000	      0.00000000	      0.00000000	      0.00000000	     -1.44863791	     -6.69057436	      6.63972363	     -8.72827360
      0.82500000	     -0.11255219	     -6.76888650	      7.14803672	      0.35881933	      0.98508263	      0.22897561	      6.68818774	     14.02932433	      3.24887198	    -18.52957296	      1.35630234	    -24.12268375	      2.16523808	     24.06320208	    -16.25985445	      2.79763086	    -68.46319256	      0.00000000	      0.00000000	      0.00000000	      0.00000000	      0.00000000	      0.00000000	     -1.44663700	     -6.65763179	      6.38626987	     -8.63672975
      0.82916667	     -0.22350320	     -6.46922500	      7.00496307	      0.36431119	      0.98624169	      0.22837936	      6.11576976	     13.66085844	      3.40917613	    -18.05053497	      1.28478608	    -23.98693771	      2.22018025	     24.64313652	    -15.60591186	      2.94177434	    -67.87879245	      0.00000000	      0.00000000	      0.00000000	      0.00000000	      0.00000000	      0.00000000	     -1.51276397	     -6.58326400	      6.08003667	     -8.51837370
      0.83333333	     -0.29649227	     -6.17362119	      6.84544922	      0.36978356	      0.98740262	      0.22784305	      5.52480211	     13.30006687	      3.55721896	    -17.60502961	      1.19126937	    -23.81703808	      2.29267863	     25.15426021	    -14.99539058	      3.05438658	    -67.24647376	      0.00000000	      0.00000000	      0.00000000	      0.00000000	      0.00000000	      0.00000000	     -1.55096411	     -6.56780151	      5.78078996	     -8.39023640
      0.83750000	     -0.35093203	     -5.89110530	      6.68670624	      0.37527019	      0.98854958	      0.22737044	      4.92371393	     12.96110559	      3.71551415	    -17.16551107	      1.10806854	    -23.64024644	      2.37487533	     25.62239653	    -14.42282035	      3.15769137	    -66.55579469	      0.00000000	      0.00000000	      0.00000000	      0.00000000	      0.00000000	      0.00000000	     -1.57114804	     -6.56557979	      5.49319493	     -8.25684025
      0.84166667	     -0.39623022	     -5.62834485	      6.50722013	      0.38078498	      0.98968377	      0.22696699	      4.32328894	     12.64325999	      3.86685480	    -16.73903136	      1.02297730	    -23.46959375	      2.45861414	     26.04986251	    -13.90256074	      3.23730109	    -65.80574211	      0.00000000	      0.00000000	      0.00000000	      0.00000000	      0.00000000	      0.00000000	     -1.58501104	     -6.56542381	      5.23765910	     -8.12284595
      0.84583333	      0.20939248	     -5.10237587	      6.24221369	      0.38652196	      0.99201593	      0.22687985	      2.87700179	     12.11313099	      4.07420142	    -16.11786576	      0.83497986	    -23.03328116	      3.20711058	     25.48954294	    -13.32906896	      2.95315603	    -64.75602757	      0.00000000	      0.00000000	      0.00000000	      0.00000000	      0.00000000	      0.00000000	     -1.61519681	     -7.38279956	      4.68897483	     -7.66222367
      0.85000000	      0.05986912	     -4.90289120	      6.08792882	      0.39200145	      0.99287746	      0.22662516	      2.42225483	     11.86594098	      4.22070462	    -15.70679602	      0.75399155	    -22.94395629	      3.28176306	     26.03894247	    -12.90577159	      3.04628190	    -63.95095481	      0.00000000	      0.00000000	      0.00000000	      0.00000000	      0.00000000	      0.00000000	     -1.58992339	     -7.25459275	      4.46881253	     -7.59763406
      0.85416667	      0.16361931	     -4.57452048	      5.80785456	      0.39761235	      0.99422066	      0.22662240	      1.65506811	     11.51488473	      4.47734602	    -15.26473866	      0.40615081	    -22.90187369	      3.59170410	     26.13005688	    -12.47674238	      2.89994183	    -62.95649031	      0.00000000	      0.00000000	      0.00000000	      0.00000000	      0.00000000	      0.00000000	     -1.58308623	     -7.43856150	      4.11303708	     -7.36466586
      0.85833333	      0.25111039	     -4.30267525	      5.58565747	      0.40321022	      0.99546816	      0.22662158	      0.87218249	     11.23692743	      4.80619944	    -14.74235095	      0.17161658	    -23.07028934	      3.96811991	     26.25951708	    -12.10542166	      2.81782761	    -61.92937783	      0.00000000	      0.00000000	      0.00000000	      0.00000000	      0.00000000	      0.00000000	     -1.57162832	     -7.60016409	      3.80961617	     -7.10650313
      0.86250000	      0.11120802	     -4.13101762	      5.42832925	      0.40865274	      0.99621197	      0.22651327	      0.44650729	     11.03262957	      4.97213325	    -14.37414845	      0.06532027	    -23.02016894	      4.01165479	     26.72980272	    -11.77360045	      2.87830820	    -60.96314544	      0.00000000	      0.00000000	      0.00000000	      0.00000000	      0.00000000	      0.00000000	     -1.52924635	     -7.48871775	      3.61925007	     -7.04340295
      0.86666667	      0.25880221	     -3.81386651	      5.07296761	      0.41425049	      0.99754955	      0.22683346	     -0.36594673	     10.71912915	      5.41368323	    -13.91991437	     -0.33962617	    -23.26071751	      4.19236682	     26.65944092	    -11.46770700	      2.59988233	    -59.77327942	      0.00000000	      0.00000000	      0.00000000	      0.00000000	      0.00000000	      0.00000000	     -1.48318330	     -7.73191442	      3.23825682	     -6.70922317
      0.87083333	      0.11419101	     -3.68901800	      4.92707227	      0.41970415	      0.99817495	      0.22677024	     -0.76350603	     10.56601136	      5.54131288	    -13.56933144	     -0.39338090	    -23.24901546	      4.21428428	     27.09908779	    -11.21906178	      2.64328074	    -58.71371492	      0.00000000	      0.00000000	      0.00000000	      0.00000000	      0.00000000	      0.00000000	     -1.42758771	     -7.59916551	      3.10801438	     -6.64830463
      0.87500000	      0.05562200	     -3.41495038	      4.65425623	      0.42523937	      0.99904492	      0.22696586	     -1.29225342	     10.27233627	      5.88745925	    -13.19270638	     -0.72254180	    -23.30920934	      4.23594398	     27.27965632	    -10.90624902	      2.46491151	    -57.48139249	      0.00000000	      0.00000000	      0.00000000	      0.00000000	      0.00000000	      0.00000000	     -1.40667197	     -7.59097898	      2.77728129	     -6.48937473
      0.87916667	      0.31617040	     -3.12356232	      4.24454271	      0.43083748	      1.00043353	      0.22750767	     -2.24892282	     10.01006896	      6.53719760	    -12.67792489	     -1.25504283	    -24.05678253	      4.31088899	     26.97410884	    -10.72604285	      2.05893055	    -56.10131786	      0.00000000	      0.00000000	      0.00000000	      0.00000000	      0.00000000	      0.00000000	     -1.26343226	     -7.96294358	      2.40689404	     -5.98259495
      0.88333333	      0.23033249	     -3.13277709	      4.09798640	      0.43582869	      1.00088037	      0.22744453	     -2.50252131	     10.00824890	      6.56388724	    -12.63629188	     -1.27202081	    -24.05156550	      4.31463974	     27.36807521	    -10.63520146	      2.15773025	    -54.96682321	      0.00000000	      0.00000000	      0.00000000	      0.00000000	      0.00000000	      0.00000000	     -1.19376733	     -7.93806450	      2.46268623	     -5.96235618
      0.88750000	      0.20690899	     -2.69473110	      3.65822792	      0.44178515	      1.00190858	      0.22804500	     -3.20499141	      9.53957629	      7.21226337	    -12.06021707	     -1.72128554	    -24.35999031	      4.28702739	     27.21613625	    -10.31001606	      1.60727124	    -53.38609209	      0.00000000	      0.00000000	      0.00000000	      0.00000000	      0.00000000	      0.00000000	     -1.15725111	     -7.94177487	      1.88328940	     -5.61550293
      0.89166667	      0.09634745	     -2.52610784	      3.43083615	      0.44726115	      1.00243047	      0.22816215	     -3.61189005	      9.34071446	      7.44936874	    -11.75054815	     -1.92446497	    -24.48357862	      4.26014835	     27.40298695	    -10.11281290	      1.46430397	    -51.98346962	      0.00000000	      0.00000000	      0.00000000	      0.00000000	      0.00000000	      0.00000000	     -1.08885430	     -7.84858200	      1.68486981	     -5.48863835
      0.89583333	     -0.02690182	     -2.33803055	      3.19261687	      0.45274161	      1.00288575	      0.22827628	     -4.00175840	      9.11801959	      7.71525981	    -11.44729543	     -2.09645291	    -24.58263261	      4.23587095	     27.55776267	     -9.90581963	      1.28019053	    -50.52198433	      0.00000000	      0.00000000	      0.00000000	      0.00000000	      0.00000000	      0.00000000	     -0.98250814	     -7.75213259	      1.45937459	     -5.36360555
      0.90000000	     -0.10301702	     -2.12246226	      2.88725873	      0.45823362	      1.00341153	      0.22850709	     -4.42473920	      8.86603072	      8.03824089	    -11.17970334	     -2.32346006	    -24.73342175	      4.19988037	     27.57965919	     -9.72004524	      0.98068626	    -48.95541067	      0.00000000	      0.00000000	      0.00000000	      0.00000000	      0.00000000	      0.00000000	     -0.89266179	     -7.70454100	      1.19960304	     -5.17750596
      0.90416667	      0.17963236	     -1.84145618	      2.34106185	      0.46363682	      1.00456896	      0.22920198	     -5.26474167	      8.57025505	      8.77588226	    -10.87885869	     -2.75455732	    -25.42377187	      4.10297762	     27.03095842	     -9.63977446	      0.31893014	    -47.19546181	      0.00000000	      0.00000000	      0.00000000	      0.00000000	      0.00000000	      0.00000000	     -0.78590587	     -8.10934447	      0.83236563	     -4.52176760
